# xmcd CD database file
#
# Track frame offsets:
#	150
#	13033
#	30652
#	46798
#	70969
#	83524
#
# Disc length: 1423 seconds
#
# Revision: 0
# Processed by: cddbd v1.5PL3 Copyright (c) Steve Scherf et al.
# Submitted via: CDex 1.51
#
DISCID=3d058d06
DTITLE=The Carsons - .CA
DYEAR=2001
DGENRE=Country
TTITLE0=Red Lined
TTITLE1=Back to the Old School
TTITLE2=Fly Away
TTITLE3=Dance of the Leprechauns
TTITLE4=Cheslatta Lake Rag
TTITLE5=Higher
EXTD=YEAR: 2001
EXTT0=
EXTT1=
EXTT2=
EXTT3=
EXTT4=
EXTT5=
PLAYORDER=
